#!OML:ASF C:\Vicon Data\Big\jianyuan-11\jianyuan\Session 1\male.ASF
:FULLY-SPECIFIED
:DEGREES
209
root -14.943508 16.480176 -8.727375 -17.184016 -42.378627 16.223872
lowerback 3.389344 1.658397 -5.425886 
upperback 6.134552 2.454358 -0.909493 
thorax 4.285397 1.111123 2.104300 
lowerneck -13.482703 -6.390836 -10.959077 
upperneck 24.737472 -8.423344 9.999953 
head 11.141657 -3.510622 4.366333 
rclavicle 0.000000 0.000000 
rhumerus -46.950906 -30.501581 -68.055260 
rradius 37.002970 
rwrist -0.711568 
rhand -18.090003 -0.770508 
rfingers 0.000000 
rthumb 8.183496 -30.592056 
lclavicle 0.000000 0.000000 
lhumerus -18.235090 15.877914 90.593369 
lradius 38.306588 
lwrist -13.719288 
lhand -14.107725 -9.027963 
lfingers 0.000000 
lthumb 12.025179 20.606540 
rfemur -32.010916 -3.223715 12.354669 
rtibia 63.299616 
rfoot -1.324496 -7.294181 
rtoes 9.851281 
lfemur 3.956035 -1.465833 -31.160195 
ltibia 20.280744 
lfoot -14.691566 -0.579661 
ltoes -2.012401 
210
root -14.994622 16.487553 -8.676037 -17.101423 -42.556139 16.007272
lowerback 3.410194 1.632248 -5.244132 
upperback 6.182176 2.418543 -0.830048 
thorax 4.328211 1.097486 2.085743 
lowerneck -13.577821 -6.379864 -10.833442 
upperneck 24.757031 -8.373296 9.765070 
head 11.143816 -3.502390 4.262423 
rclavicle 0.000000 0.000000 
rhumerus -46.998907 -30.649795 -67.838301 
rradius 36.970142 
rwrist -0.617769 
rhand -18.181792 -0.723279 
rfingers 0.000000 
rthumb 8.094887 -30.548201 
lclavicle 0.000000 0.000000 
lhumerus -17.896529 15.203957 90.838122 
lradius 38.860147 
lwrist -13.300542 
lhand -14.001564 -8.962049 
lfingers 0.000000 
lthumb 12.127595 20.666485 
rfemur -32.057534 -2.990316 12.438377 
rtibia 62.063738 
rfoot -1.741252 -7.408774 
rtoes 11.396319 
lfemur 4.611643 -1.439864 -30.981217 
ltibia 19.658356 
lfoot -14.684293 -0.393328 
ltoes -1.947284 
211
root -15.043250 16.494951 -8.624500 -17.122910 -42.628593 16.021706
lowerback 3.391889 1.602344 -5.247987 
upperback 6.194054 2.379146 -0.803839 
thorax 4.352796 1.076016 2.115959 
lowerneck -13.525790 -6.383785 -10.840511 
upperneck 24.661436 -8.385470 9.786408 
head 11.100416 -3.509993 4.267774 
rclavicle 0.000000 0.000000 
rhumerus -47.171686 -30.798819 -67.575105 
rradius 37.032776 
rwrist -0.550982 
rhand -18.181545 -0.626775 
rfingers 0.000000 
rthumb 8.095093 -30.451701 
lclavicle 0.000000 0.000000 
lhumerus -17.639991 14.369162 91.090304 
lradius 39.516656 
lwrist -12.637868 
lhand -14.050225 -8.807296 
lfingers 0.000000 
lthumb 12.080661 20.823975 
rfemur -32.163815 -2.850992 12.317794 
rtibia 60.851082 
rfoot -1.931407 -7.408297 
rtoes 10.528234 
lfemur 5.239375 -1.436765 -31.016808 
ltibia 18.960995 
lfoot -14.786465 -0.235604 
ltoes -2.153016 
212
root -15.089826 16.501623 -8.574085 -17.154248 -42.615463 16.134879
lowerback 3.355865 1.541929 -5.288721 
upperback 6.182046 2.301662 -0.851254 
thorax 4.367051 1.036425 2.090651 
lowerneck -13.562035 -6.375636 -10.690729 
upperneck 24.676067 -8.376696 9.659823 
head 11.098151 -3.505952 4.195712 
rclavicle 0.000000 0.000000 
rhumerus -47.235859 -30.869172 -67.464477 
rradius 37.041046 
rwrist -0.645450 
rhand -18.300175 -0.665457 
rfingers 0.000000 
rthumb 7.980601 -30.494752 
lclavicle 0.000000 0.000000 
lhumerus -17.365444 13.711710 91.221462 
lradius 40.052814 
lwrist -12.133508 
lhand -14.043855 -8.851530 
lfingers 0.000000 
lthumb 12.086819 20.779366 
rfemur -32.291690 -2.852016 12.075469 
rtibia 59.624711 
rfoot -2.043064 -7.368947 
rtoes 10.324953 
lfemur 5.793243 -1.445524 -31.146049 
ltibia 18.289643 
lfoot -14.688396 -0.115423 
ltoes -1.123252 
213
root -15.135432 16.508453 -8.526063 -17.200838 -42.620856 16.300880
lowerback 3.302044 1.493156 -5.392086 
upperback 6.164180 2.239684 -0.889752 
thorax 4.382215 1.001390 2.109796 
lowerneck -13.571174 -6.355185 -10.598795 
upperneck 24.662492 -8.342116 9.551304 
head 11.080654 -3.495009 4.143919 
rclavicle 0.000000 0.000000 
rhumerus -47.292260 -30.969924 -67.305254 
rradius 37.002247 
rwrist -0.654242 
rhand -18.436271 -0.694278 
rfingers 0.000000 
rthumb 7.849258 -30.528517 
lclavicle 0.000000 0.000000 
lhumerus -17.096456 13.091384 91.365606 
lradius 40.568947 
lwrist -11.675219 
lhand -14.007934 -8.903161 
lfingers 0.000000 
lthumb 12.121475 20.725698 
rfemur -32.442286 -2.790148 11.788289 
rtibia 58.405412 
rfoot -2.148665 -7.329901 
rtoes 10.857898 
lfemur 6.312287 -1.468723 -31.317371 
ltibia 17.613632 
lfoot -14.623042 0.051142 
ltoes -0.174456 
214
root -15.182020 16.515582 -8.479874 -17.191194 -42.682095 16.345323
lowerback 3.269269 1.454677 -5.432327 
upperback 6.149675 2.187819 -0.878440 
thorax 4.387808 0.972775 2.144681 
lowerneck -13.551339 -6.331712 -10.624906 
upperneck 24.631794 -8.301817 9.542797 
head 11.061144 -3.482000 4.150699 
rclavicle 0.000000 0.000000 
rhumerus -47.365614 -31.079344 -67.104191 
rradius 36.959863 
rwrist -0.653079 
rhand -18.523538 -0.710505 
rfingers 0.000000 
rthumb 7.765042 -30.547892 
lclavicle 0.000000 0.000000 
lhumerus -16.874723 12.448088 91.527614 
lradius 41.150273 
lwrist -11.218574 
lhand -13.967345 -8.874908 
lfingers 0.000000 
lthumb 12.160602 20.751648 
rfemur -32.544710 -2.617711 11.620643 
rtibia 57.185197 
rfoot -2.205053 -7.321315 
rtoes 11.039370 
lfemur 6.856505 -1.506971 -31.380719 
ltibia 16.926039 
lfoot -14.629269 0.270584 
ltoes 0.276691 
215
root -15.231788 16.522852 -8.434244 -17.027804 -42.808275 16.052946
lowerback 3.309574 1.408196 -5.231037 
upperback 6.143928 2.117891 -0.794964 
thorax 4.365517 0.944211 2.117668 
lowerneck -13.545141 -6.317861 -10.765175 
upperneck 24.652762 -8.284852 9.678873 
head 11.079280 -3.471638 4.228914 
rclavicle 0.000000 0.000000 
rhumerus -47.449944 -31.125794 -66.948923 
rradius 36.969735 
rwrist -0.839728 
rhand -18.512672 -0.766792 
rfingers 0.000000 
rthumb 7.775541 -30.603831 
lclavicle 0.000000 0.000000 
lhumerus -16.746545 11.755466 91.661915 
lradius 41.871744 
lwrist -10.747108 
lhand -13.945842 -8.724591 
lfingers 0.000000 
lthumb 12.181264 20.900717 
rfemur -32.503770 -2.350909 11.762366 
rtibia 55.945273 
rfoot -2.126846 -7.368171 
rtoes 9.381608 
lfemur 7.491236 -1.559841 -31.155584 
ltibia 16.229591 
lfoot -14.668144 0.518303 
ltoes 0.186220 
216
root -15.278069 16.526734 -8.388292 -16.965407 -42.929773 15.983090
lowerback 3.233633 1.377415 -5.143107 
upperback 6.177654 2.082250 -0.765360 
thorax 4.447557 0.926846 2.102168 
lowerneck -13.617583 -6.309593 -10.900595 
upperneck 24.660569 -8.266549 9.794047 
head 11.106609 -3.461933 4.296818 
rclavicle 0.000000 0.000000 
rhumerus -47.411346 -31.162305 -66.798510 
rradius 36.878735 
rwrist -0.786602 
rhand -18.552639 -0.684468 
rfingers 0.000000 
rthumb 7.736979 -30.522942 
lclavicle 0.000000 0.000000 
lhumerus -16.517854 11.241750 91.794346 
lradius 42.433874 
lwrist -10.334615 
lhand -13.865327 -8.784742 
lfingers 0.000000 
lthumb 12.258897 20.835927 
rfemur -32.535944 -2.198211 11.738008 
rtibia 54.752524 
rfoot -2.159828 -7.351557 
rtoes 9.590275 
lfemur 8.068618 -1.523919 -31.101673 
ltibia 15.520301 
lfoot -14.648565 0.851274 
ltoes -0.930941 
217
root -15.321744 16.531310 -8.343351 -17.005483 -42.975014 16.104060
lowerback 3.165037 1.354451 -5.211192 
upperback 6.176515 2.055601 -0.774060 
thorax 4.485985 0.909387 2.133041 
lowerneck -13.650703 -6.313053 -10.904726 
upperneck 24.675255 -8.256623 9.744238 
head 11.115370 -3.463268 4.279930 
rclavicle 0.000000 0.000000 
rhumerus -47.454107 -31.196459 -66.653099 
rradius 36.885515 
rwrist -0.879630 
rhand -18.600347 -0.771723 
rfingers 0.000000 
rthumb 7.690903 -30.611879 
lclavicle 0.000000 0.000000 
lhumerus -16.250624 10.737791 91.935308 
lradius 42.824802 
lwrist -9.854501 
lhand -13.845446 -8.908857 
lfingers 0.000000 
lthumb 12.278080 20.710670 
rfemur -32.584157 -2.036521 11.507430 
rtibia 53.574667 
rfoot -2.170848 -7.270918 
rtoes 9.576992 
lfemur 8.588062 -1.513298 -31.224604 
ltibia 14.847327 
lfoot -14.615915 1.165153 
ltoes -1.706513 
